# xmcd
#
# Track frame offsets:
#	150
#	22325
#	43675
#	62725
#	75362
#	96675
#	117475
#	138950
#	160325
#	175650
#	191887
#	214525
#	233500
#	250012
#	271987
#	290937
#	312637
#	329100
#
# Disc length: 4642 seconds
#
# Revision: 4
# Processed by: cddbd v1.5.1PL0 Copyright (c) Steve Scherf et al.
# Submitted via: CDex 1.50Beta5
#
DISCID=16122012
DTITLE=欧陽菲菲 - 欧陽菲菲ベストセレクション
DYEAR=1900
DGENRE=World
TTITLE0=愛して
TTITLE1=愛伝説
TTITLE2=真夏の夜の夢
TTITLE3=雨のエアポート
TTITLE4=悲しみの隣りに
TTITLE5=Love Is Over
TTITLE6=最終電車
TTITLE7=流れ星ララバイ
TTITLE8=雨の御堂筋
TTITLE9=雨に咲く傘の花
TTITLE10=I'll Never
TTITLE11=恋しちゃいそうね
TTITLE12=恋の十字路
TTITLE13=硝子のステーション
TTITLE14=流されて
TTITLE15=We Love Heart
TTITLE16=星影のバラード
TTITLE17=ほっといて ・Stop Teasing Me・
EXTD=
EXTT0=
EXTT1=
EXTT2=
EXTT3=
EXTT4=
EXTT5=
EXTT6=
EXTT7=
EXTT8=
EXTT9=
EXTT10=
EXTT11=
EXTT12=
EXTT13=
EXTT14=
EXTT15=
EXTT16=
EXTT17=
PLAYORDER=
